<svg viewBox="0 0 128 128"
    xmlns="http://www.w3.org/2000/svg">
    <path d="M93.809 92.112c.785-6.533.55-7.492 5.416-6.433l1.235.108c3.742.17 8.637-.602 11.513-1.938 6.191-2.873 9.861-7.668 3.758-6.409-13.924 2.873-14.881-1.842-14.881-1.842 14.703-21.815 20.849-49.508 15.543-56.287-14.47-18.489-39.517-9.746-39.936-9.52l-.134.025c-2.751-.571-5.83-.912-9.289-.968-6.301-.104-11.082 1.652-14.535 4.41 0 0-44.19-18.2-42.153 22.92.433 8.747 12.419 66.137 26.724 48.801 5.214-6.324 10.253-11.675 10.253-11.675 2.5 1.66 5.474 2.512 8.639 2.202l.244-.022c-.075.749-.108 1.48-.098 2.276-2.943 3.293-2.08 3.872-7.962 5.087-5.946 1.229-2.453 3.418-.173 3.992 2.768.696 9.17 1.683 13.497-4.408l-.215.932c1.442 1.155 2.453 7.514 2.283 13.275-.17 5.762-.353 9.706.478 12.792.832 3.087 1.662 10.035 8.743 7.973 5.93-1.726 9.002-6.195 9.422-13.67.298-5.308.936-4.525 1.018-9.27l.54-1.607c.623-5.18-.156-6.851 3.697-6.076l.873.084c2.64.12 6.1-.426 8.13-1.369 4.37-2.028 6.96-5.415 2.653-4.525z" fill="#336791"/>
    <path d="M66.509 43.262c-.684.075-1.275.166-1.753.291-.478.125-.863.291-1.155.5-.292.208-.5.458-.625.75-.125.291-.166.625-.125 1 .042.375.167.708.375 1 .208.291.5.541.875.75.375.208.833.375 1.375.5.541.125 1.166.166 1.875.125.708-.042 1.333-.166 1.875-.375.541-.208 1-.458 1.375-.75.375-.291.666-.625.875-1 .208-.375.333-.791.375-1.25.041-.458-.042-.875-.25-1.25-.208-.375-.5-.708-.875-.958-.375-.25-.833-.458-1.375-.625-.541-.166-1.166-.25-1.875-.25-.708 0-1.333.083-1.875.25-.541.166-1 .375-1.375.625-.375.25-.666.541-.875.875-.208.333-.333.708-.375 1.125-.041.416.042.791.25 1.125.208.333.5.625.875.875.375.25.833.458 1.375.625.541.166 1.166.25 1.875.25.708 0 1.333-.084 1.875-.25.541-.166 1-.375 1.375-.625.375-.25.666-.541.875-.875.208-.333.333-.708.375-1.125.041-.416-.042-.791-.25-1.125-.208-.333-.5-.625-.875-.875z" fill="white"/>
</svg>