<svg viewBox="0 0 128 128"
    xmlns="http://www.w3.org/2000/svg">
    <rect width="128" height="128" rx="8" fill="#3178C6"/>
    <path d="M82.5 68V56h-36v12h11v44h14V68h11z" fill="white"/>
    <path d="M95 120c3.5 0 6.4-.6 8.7-1.8 2.3-1.2 4-3 5.3-5.3l-6.8-4c-.8 1.5-1.8 2.6-3 3.3-1.2.7-2.7 1-4.4 1-2.3 0-4.2-.7-5.6-2.2-1.4-1.5-2.1-3.5-2.1-6.2v-.4c0-2.6.7-4.7 2.1-6.1 1.4-1.5 3.3-2.2 5.6-2.2 1.7 0 3.1.3 4.3 1 1.2.7 2.2 1.7 3 3.1l6.8-4c-1.3-2.3-3.1-4-5.4-5.2-2.3-1.2-5.1-1.8-8.5-1.8-3.2 0-6.1.6-8.6 1.9-2.5 1.3-4.5 3.1-5.9 5.5-1.4 2.4-2.1 5.2-2.1 8.4v.4c0 3.2.7 6 2.1 8.4 1.4 2.4 3.4 4.2 5.9 5.5 2.5 1.2 5.4 1.9 8.6 1.9z" fill="white"/>
</svg>